<?xml version="1.0" encoding="utf-8"?>
<!-- Generator: Adobe Illustrator 23.0.2, SVG Export Plug-In . SVG Version: 6.00 Build 0)  -->
<svg version="1.1" id="Layer_1" xmlns="http://www.w3.org/2000/svg" xmlns:xlink="http://www.w3.org/1999/xlink" x="0px" y="0px"
	 viewBox="0 0 106.9 28.9" style="enable-background:new 0 0 106.9 28.9;" xml:space="preserve">
<style type="text/css">
	.st0{fill:#B39C59;}
</style>
<title>decorator</title>
<path class="st0" d="M55.6,18.8c0,1.2-1,2.2-2.2,2.2c-1.2,0-2.2-1-2.2-2.2c0-1.2,1-2.2,2.2-2.2l0,0C54.6,16.7,55.6,17.6,55.6,18.8z"
	/>
<path class="st0" d="M39.9,23.9c-1.6,3.2-2,3-3.4,3s3.7,2.4,5.8,2c1.6-0.2,3.1-1.2,3.9-2.7c0.8-1.6,1.1-3.3,0.9-5.1l0,0
	C47.1,21.1,41.5,20.7,39.9,23.9z"/>
<path class="st0" d="M26.5,23.7c-1.4,3.2-1.9,3-3.3,3.1s3.8,2.3,5.9,1.8c1.6-0.3,3-1.4,3.7-2.8c0.7-1.6,1-3.4,0.7-5.1l0,0
	C33.5,20.6,27.9,20.5,26.5,23.7z"/>
<path class="st0" d="M14.2,18.9c-2.4,2.5-2.7,2.1-4,1.7s2.7,3.3,4.8,3.6c1.6,0.3,3.2-0.2,4.4-1.3c1.2-1.2,2-2.8,2.4-4.4l0,0
	C21.7,18.5,16.6,16.5,14.2,18.9z"/>
<path class="st0" d="M18.6,8.2c0.4-3.4-0.1-3.5-1.2-4.2s4.3-0.1,5.8,1.3c1.2,1,1.9,2.6,1.8,4.2c-0.2,1.7-0.8,3.3-1.9,4.6l0,0
	C23.1,14.3,18.3,11.7,18.6,8.2z"/>
<path class="st0" d="M9.5,3.9C9.8,1,9.4,1,8.5,0.4s3.6,0,4.9,1.2c1,0.9,1.6,2.2,1.5,3.5c-0.1,1.4-0.7,2.8-1.6,3.9l0,0
	C13.1,9,9.1,6.8,9.5,3.9z"/>
<path class="st0" d="M3.9,12c-2.6,1.3-2.8,0.9-3.7,0.3s1.2,3.4,2.8,4.2c1.2,0.6,2.6,0.7,3.8,0.2c1.3-0.6,2.4-1.6,3.1-2.9l0,0
	C9.9,13.7,6.4,10.7,3.9,12z"/>
<path class="st0" d="M40.6,11.3c-0.4-3.4-0.9-3.4-2.1-3.8s4.2-1,6,0c1.4,0.7,2.4,2.1,2.7,3.7c0.2,1.7-0.1,3.4-0.8,5l0,0
	C46.3,16.2,41,14.7,40.6,11.3z"/>
<path class="st0" d="M29,10.1c0.2-3.4-0.3-3.5-1.5-4.1s4.3-0.3,5.9,1c1.3,1,2,2.5,2,4.1c-0.1,1.7-0.6,3.4-1.6,4.8l0,0
	C33.8,15.9,28.8,13.6,29,10.1z"/>
<path class="st0" d="M50.5,18c-1.6-0.6-4.4,0-6.1,0.1c-4.8,0-9.5-0.3-14.2-1C19,15.4,7.5,11,1.5,0.9c0.1,0.2-0.1,0.6,0,0.8
	c6,10.2,17.5,14.5,28.7,16.2c4.6,0.7,9.2,1,13.8,1c1.8,0,4.8-0.7,6.5-0.1C50.4,18.8,50.6,18.1,50.5,18L50.5,18z"/>
<path class="st0" d="M51.3,18.7c0,1.2,1,2.2,2.2,2.2c1.2,0,2.2-1,2.2-2.2c0-1.2-1-2.2-2.2-2.2l0,0C52.3,16.6,51.3,17.5,51.3,18.7z"
	/>
<path class="st0" d="M67,23.8c1.6,3.2,2,3,3.4,3s-3.7,2.4-5.8,2c-1.6-0.2-3.1-1.2-3.8-2.7c-0.8-1.6-1.1-3.3-0.9-5.1l0,0
	C59.8,21,65.4,20.6,67,23.8z"/>
<path class="st0" d="M80.4,23.6c1.4,3.2,1.9,3,3.3,3.1s-3.8,2.3-5.8,1.8c-1.6-0.3-3-1.3-3.7-2.8c-0.7-1.6-1-3.4-0.7-5.1l0,0
	C73.4,20.5,79,20.4,80.4,23.6z"/>
<path class="st0" d="M92.6,18.8c2.4,2.5,2.8,2.1,4,1.7s-2.7,3.3-4.8,3.6c-1.6,0.3-3.2-0.2-4.3-1.3c-1.2-1.2-2-2.8-2.4-4.4l0,0
	C85.2,18.4,90.3,16.4,92.6,18.8z"/>
<path class="st0" d="M88.3,8.1c-0.4-3.4,0.1-3.5,1.2-4.2s-4.3-0.1-5.8,1.3c-1.2,1.1-1.9,2.6-1.8,4.2c0.2,1.7,0.8,3.3,1.9,4.6l0,0
	C83.8,14.2,88.6,11.5,88.3,8.1z"/>
<path class="st0" d="M97.4,3.8c-0.3-2.9,0.1-2.9,1-3.5s-3.6,0-4.9,1.2c-1,0.9-1.5,2.2-1.5,3.6c0.1,1.4,0.7,2.8,1.6,3.9l0,0
	C93.7,8.9,97.8,6.6,97.4,3.8z"/>
<path class="st0" d="M103,11.9c2.6,1.3,2.8,0.9,3.7,0.3s-1.2,3.4-2.8,4.2c-1.2,0.6-2.6,0.7-3.8,0.1c-1.3-0.6-2.4-1.6-3.1-2.9l0,0
	C97,13.6,100.4,10.6,103,11.9z"/>
<path class="st0" d="M66.3,11.1c0.4-3.4,0.9-3.4,2.1-3.8s-4.2-1-6,0C61,8.1,60,9.4,59.8,11c-0.2,1.7,0.1,3.4,0.8,5l0,0
	C60.6,16,65.9,14.6,66.3,11.1z"/>
<path class="st0" d="M77.9,10c-0.2-3.4,0.3-3.5,1.5-4.1s-4.3-0.3-5.9,1c-1.3,1-2,2.5-2,4.1c0,1.7,0.6,3.4,1.6,4.8l0,0
	C73.1,15.8,78.1,13.5,77.9,10z"/>
<path class="st0" d="M56.4,17.9c1.6-0.6,4.4,0,6.1,0.1c4.8,0,9.5-0.3,14.2-1c11.2-1.6,22.7-6.1,28.7-16.2c-0.1,0.2,0.1,0.6,0,0.8
	C99.4,11.7,87.9,16,76.7,17.7c-4.6,0.7-9.2,1-13.8,1c-1.8,0-4.8-0.7-6.5-0.1C56.5,18.7,56.3,17.9,56.4,17.9L56.4,17.9z"/>
</svg>
