 <svg width="40"
 xmlns="http://www.w3.org/2000/svg"
                        class="si63dd47e0b75331000cf9e92afb1344eb8cf2474d8cf5ce799a20d2e31675446252151 svgIcon_1J7 outlined_2wD darkTheme_3jZ"
                        viewBox="0 0 32 32" style="border-radius:50%">
                        <path class="outer_bDW"
                            d="M0,0 L32,0 L32,32 L0,32 L0,0 Z M9.97232285,11.5995823 C11.0610099,11.5995823 11.9435914,10.7947111 11.9435914,9.80075848 C11.9435914,8.8059265 11.0610099,8 9.97232285,8 C8.88258153,8 8,8.8059265 8,9.80075848 C8,10.7947111 8.88258153,11.5995823 9.97232285,11.5995823 Z M8.4518207,23.1711013 L11.9888237,23.1711013 L11.9888237,12.9700277 L8.4518207,12.9700277 L8.4518207,23.1711013 Z M16.9530531,17.4974678 C16.9530531,16.3276256 17.5065334,15.1836392 18.8299664,15.1836392 C20.1533994,15.1836392 20.4788107,16.3276256 20.4788107,17.4695014 L20.4788107,23.0408069 L24,23.0408069 L24,17.2417242 C24,13.2127953 21.6184531,12.518207 20.1533994,12.518207 C18.6895756,12.518207 17.8821971,13.0133365 16.9530531,14.2130799 L16.9530531,12.8397333 L13.4218484,12.8397333 L13.4218484,23.0408069 L16.9530531,23.0408069 L16.9530531,17.4974678 Z">
                        </path>
                        <path
                            d="M16,31 C24.2842712,31 31,24.2842712 31,16 C31,7.71572875 24.2842712,1 16,1 C7.71572875,1 1,7.71572875 1,16 C1,24.2842712 7.71572875,31 16,31 Z M16,32 C7.163444,32 0,24.836556 0,16 C0,7.163444 7.163444,0 16,0 C24.836556,0 32,7.163444 32,16 C32,24.836556 24.836556,32 16,32 Z"
                            class="border_2yy"></path>
                        <path class="logo_2gS"
                            d="M9.97232285,11.5995823 C8.88258153,11.5995823 8,10.7947111 8,9.80075848 C8,8.8059265 8.88258153,8 9.97232285,8 C11.0610099,8 11.9435914,8.8059265 11.9435914,9.80075848 C11.9435914,10.7947111 11.0610099,11.5995823 9.97232285,11.5995823 Z M8.4518207,23.1711013 L8.4518207,12.9700277 L11.9888237,12.9700277 L11.9888237,23.1711013 L8.4518207,23.1711013 Z M16.9530531,17.4974678 L16.9530531,23.0408069 L13.4218484,23.0408069 L13.4218484,12.8397333 L16.9530531,12.8397333 L16.9530531,14.2130799 C17.8821971,13.0133365 18.6895756,12.518207 20.1533994,12.518207 C21.6184531,12.518207 24,13.2127953 24,17.2417242 L24,23.0408069 L20.4788107,23.0408069 L20.4788107,17.4695014 C20.4788107,16.3276256 20.1533994,15.1836392 18.8299664,15.1836392 C17.5065334,15.1836392 16.9530531,16.3276256 16.9530531,17.4974678 Z">
                        </path>
                    </svg>
                    